<mxfile host="Electron" modified="2025-07-02T15:30:41.423Z" agent="Mozilla/5.0 (Windows NT 10.0; Win64; x64) AppleWebKit/537.36 (KHTML, like Gecko) draw.io/24.1.0 Chrome/120.0.6099.109 Electron/28.1.0 Safari/537.36" etag="QviVMeqdWTc-z_gsAv4t" version="24.1.0" type="device">
  <diagram name="第 1 页" id="m4WlvHM6WWsqlOekGDqn">
    <mxGraphModel dx="288" dy="262" grid="1" gridSize="10" guides="1" tooltips="1" connect="1" arrows="1" fold="1" page="1" pageScale="1" pageWidth="827" pageHeight="1169" math="0" shadow="0">
      <root>
        <mxCell id="0" />
        <mxCell id="1" parent="0" />
        <mxCell id="kYrGdw5Z2vzdYEB51mjV-1" style="edgeStyle=orthogonalEdgeStyle;rounded=0;orthogonalLoop=1;jettySize=auto;html=1;exitX=0.5;exitY=1;exitDx=0;exitDy=0;entryX=0.5;entryY=0;entryDx=0;entryDy=0;" edge="1" parent="1" source="K8trbJLzHtX-AJA_kqR3-21" target="K8trbJLzHtX-AJA_kqR3-22">
          <mxGeometry relative="1" as="geometry" />
        </mxCell>
        <mxCell id="K8trbJLzHtX-AJA_kqR3-21" value="开始" style="rounded=1;whiteSpace=wrap;html=1;" parent="1" vertex="1">
          <mxGeometry x="160" y="90" width="120" height="40" as="geometry" />
        </mxCell>
        <mxCell id="kYrGdw5Z2vzdYEB51mjV-2" style="edgeStyle=orthogonalEdgeStyle;rounded=0;orthogonalLoop=1;jettySize=auto;html=1;exitX=0.5;exitY=1;exitDx=0;exitDy=0;entryX=0.5;entryY=0;entryDx=0;entryDy=0;" edge="1" parent="1" source="K8trbJLzHtX-AJA_kqR3-22" target="K8trbJLzHtX-AJA_kqR3-23">
          <mxGeometry relative="1" as="geometry" />
        </mxCell>
        <mxCell id="K8trbJLzHtX-AJA_kqR3-22" value="管理员登录" style="rounded=0;whiteSpace=wrap;html=1;" parent="1" vertex="1">
          <mxGeometry x="160" y="160" width="120" height="40" as="geometry" />
        </mxCell>
        <mxCell id="K8trbJLzHtX-AJA_kqR3-30" value="" style="edgeStyle=orthogonalEdgeStyle;rounded=0;orthogonalLoop=1;jettySize=auto;html=1;" parent="1" source="K8trbJLzHtX-AJA_kqR3-23" target="K8trbJLzHtX-AJA_kqR3-25" edge="1">
          <mxGeometry relative="1" as="geometry" />
        </mxCell>
        <mxCell id="K8trbJLzHtX-AJA_kqR3-23" value="查看信息" style="rounded=0;whiteSpace=wrap;html=1;" parent="1" vertex="1">
          <mxGeometry x="160" y="230" width="120" height="40" as="geometry" />
        </mxCell>
        <mxCell id="K8trbJLzHtX-AJA_kqR3-25" value="结束" style="rounded=1;whiteSpace=wrap;html=1;" parent="1" vertex="1">
          <mxGeometry x="160" y="290" width="120" height="40" as="geometry" />
        </mxCell>
      </root>
    </mxGraphModel>
  </diagram>
</mxfile>
